RBDS08runT45_grf
version=1
nRows=21
nColumns=19
inDegrees=no
endheader
time	ground_force_r_vx	ground_force_r_vy	ground_force_r_vz	ground_force_r_px	ground_force_r_py	ground_force_r_pz	ground_force_r_mx	ground_force_r_my	ground_force_r_mz	ground_force_l_vx	ground_force_l_vy	ground_force_l_vz	ground_force_l_px	ground_force_l_py	ground_force_l_pz	ground_force_l_mx	ground_force_l_my	ground_force_l_mz
     22.49800000	      0.00000000	      0.00000000	      0.00000000	      0.00000000	      0.00000000	      0.00000000	      0.00000000	      0.00000000	      0.00000000	    186.70913030	    368.89931918	    -14.26054359	      1.85131980	      0.00000000	      0.99959539	     -0.00000000	     -1.98935640	      0.00000000
     22.49900000	      0.00000000	      0.00000000	      0.00000000	      0.00000000	      0.00000000	      0.00000000	      0.00000000	      0.00000000	      0.00000000	    183.22379447	    353.16096225	    -14.42208786	      1.84944564	      0.00000000	      0.99959372	     -0.00000000	     -2.18462525	      0.00000000
     22.50000000	      0.00000000	      0.00000000	      0.00000000	      0.00000000	      0.00000000	      0.00000000	      0.00000000	      0.00000000	      0.00000000	    179.73845864	    337.42260533	    -14.58363212	      1.84757148	      0.00000000	      0.99959205	     -0.00000000	     -2.37989410	      0.00000000
     22.50100000	      0.00000000	      0.00000000	      0.00000000	      0.00000000	      0.00000000	      0.00000000	      0.00000000	      0.00000000	      0.00000000	    176.11459322	    322.64270958	    -14.61262906	      1.84595906	      0.00000000	      0.99955946	     -0.00000000	     -2.55820144	      0.00000000
     22.50200000	      0.00000000	      0.00000000	      0.00000000	      0.00000000	      0.00000000	      0.00000000	      0.00000000	      0.00000000	      0.00000000	    172.49072779	    307.86281383	    -14.64162599	      1.84434663	      0.00000000	      0.99952686	     -0.00000000	     -2.73650879	      0.00000000
     22.50300000	      0.00000000	      0.00000000	      0.00000000	      0.00000000	      0.00000000	      0.00000000	      0.00000000	      0.00000000	      0.00000000	    168.86686237	    293.08291809	    -14.67062293	      1.84273421	      0.00000000	      0.99949427	     -0.00000000	     -2.91481613	      0.00000000
     22.50400000	      0.00000000	      0.00000000	      0.00000000	      0.00000000	      0.00000000	      0.00000000	      0.00000000	      0.00000000	      0.00000000	    165.20305186	    278.98648746	    -14.62146088	      1.84128972	      0.00000000	      0.99944350	     -0.00000000	     -3.08143729	      0.00000000
     22.50500000	      0.00000000	      0.00000000	      0.00000000	      0.00000000	      0.00000000	      0.00000000	      0.00000000	      0.00000000	      0.00000000	    161.51926882	    265.23178940	    -14.53321934	      1.83992920	      0.00000000	      0.99938365	     -0.00000000	     -3.24221535	      0.00000000
     22.50600000	      0.00000000	      0.00000000	      0.00000000	      0.00000000	      0.00000000	      0.00000000	      0.00000000	      0.00000000	      0.00000000	    157.83548577	    251.47709133	    -14.44497780	      1.83856868	      0.00000000	      0.99932380	     -0.00000000	     -3.40299342	      0.00000000
     22.50700000	      0.00000000	      0.00000000	      0.00000000	      0.00000000	      0.00000000	      0.00000000	      0.00000000	      0.00000000	      0.00000000	    154.15748254	    238.08213119	    -14.32367375	      1.83728718	      0.00000000	      0.99925635	     -0.00000000	     -3.55787866	      0.00000000
     22.50800000	      0.00000000	      0.00000000	      0.00000000	      0.00000000	      0.00000000	      0.00000000	      0.00000000	      0.00000000	      0.00000000	    150.49103891	    225.40664690	    -14.13624465	      1.83616372	      0.00000000	      0.99917372	     -0.00000000	     -3.70097826	      0.00000000
     22.50900000	      0.00000000	      0.00000000	      0.00000000	      0.00000000	      0.00000000	      0.00000000	      0.00000000	      0.00000000	      0.00000000	    146.82459528	    212.73116261	    -13.94881556	      1.83504026	      0.00000000	      0.99909108	     -0.00000000	     -3.84407785	      0.00000000
     22.51000000	      0.00000000	      0.00000000	      0.00000000	      0.00000000	      0.00000000	      0.00000000	      0.00000000	      0.00000000	      0.00000000	    143.15815166	    200.05567832	    -13.76138646	      1.83391680	      0.00000000	      0.99900845	     -0.00000000	     -3.98717745	      0.00000000
     22.51100000	      0.00000000	      0.00000000	      0.00000000	      0.00000000	      0.00000000	      0.00000000	      0.00000000	      0.00000000	      0.00000000	    139.58253275	    188.49945316	    -13.49479737	      1.83301125	      0.00000000	      0.99890809	     -0.00000000	     -4.11283388	      0.00000000
     22.51200000	      0.00000000	      0.00000000	      0.00000000	      0.00000000	      0.00000000	      0.00000000	      0.00000000	      0.00000000	      0.00000000	    136.00691385	    176.94322800	    -13.22820828	      1.83210571	      0.00000000	      0.99880773	     -0.00000000	     -4.23849031	      0.00000000
     22.51300000	      0.00000000	      0.00000000	      0.00000000	      0.00000000	      0.00000000	      0.00000000	      0.00000000	      0.00000000	      0.00000000	    132.43129495	    165.38700284	    -12.96161920	      1.83120016	      0.00000000	      0.99870737	     -0.00000000	     -4.36414674	      0.00000000
     22.51400000	      0.00000000	      0.00000000	      0.00000000	      0.00000000	      0.00000000	      0.00000000	      0.00000000	      0.00000000	      0.00000000	    128.96114054	    154.59359194	    -12.65634503	      1.83042488	      0.00000000	      0.99859880	     -0.00000000	     -4.47855684	      0.00000000
     22.51500000	      0.00000000	      0.00000000	      0.00000000	      0.00000000	      0.00000000	      0.00000000	      0.00000000	      0.00000000	      0.00000000	    125.54371838	    144.18158817	    -12.33172832	      1.82971472	      0.00000000	      0.99848612	     -0.00000000	     -4.58734377	      0.00000000
     22.51600000	      0.00000000	      0.00000000	      0.00000000	      0.00000000	      0.00000000	      0.00000000	      0.00000000	      0.00000000	      0.00000000	    122.12629621	    133.76958441	    -12.00711161	      1.82900457	      0.00000000	      0.99837344	     -0.00000000	     -4.69613070	      0.00000000
     22.51700000	      0.00000000	      0.00000000	      0.00000000	      0.00000000	      0.00000000	      0.00000000	      0.00000000	      0.00000000	      0.00000000	    118.78130732	    123.74197044	    -11.67025110	      1.82835126	      0.00000000	      0.99825849	     -0.00000000	     -4.79958057	      0.00000000
     22.51800000	      0.00000000	      0.00000000	      0.00000000	      0.00000000	      0.00000000	      0.00000000	      0.00000000	      0.00000000	      0.00000000	    115.58118498	    114.48313609	    -11.30890299	      1.82781164	      0.00000000	      0.99813899	     -0.00000000	     -4.89235631	      0.00000000
